<svg xmlns="http://www.w3.org/2000/svg" width="50" height="46"><path d="M25.32 14.08c.7.117.875-.058.933-.7.175-1.052.525-2.806 1.4-4.56.934-1.93 2.45-4.033 4.492-5.436 1.75-1.17 4.61-2.513 6.884-2.98 1.81-.41 3.5-.468 5.017-.35 3.034.292 4.667 1.11 5.484 2.22.292.41.467.935.467 1.286 0 .526-.234 1.286-.992 1.987s-2.392 1.52-4.667 2.28c-2.334.76-5.543 1.578-8.693 2.338-2.684.585-4.2 1.11-5.426 1.578-2.1.7-2.742 2.806-1.4 3.448 1.867.935 3.092 1.87 4.084 2.69 1.517 1.227 3.267 2.69 5.426 5.32 1.984 2.396 5.192 7.014 6.36 11.514 1.283 4.9.467 9.585-2.275 10.87S36.056 45 33.49 42.37c-2.45-2.513-4.142-5.494-5.718-10.053-1.4-3.916-1.925-9.644-1.925-12.566v-2.104c.117-.76-1.984-1.403-4.26 0-2.567 1.637-5.076 4.676-6.593 6.43-.642.76-1.517 1.87-2.45 3.04-1.225 1.52-2.567 3.156-3.792 4.033-1.867 1.344-4.843 1.93-6.943.41C.642 30.738.058 29.16 0 27.582c0-1.1.233-2.163.817-3.156.7-1.227 1.867-2.572 3.676-4.033 1.867-1.578 4.9-3.332 7.935-4.5 4.61-1.812 9.568-2.396 12.894-1.812z" fill="#00AAF8" fill-rule="evenodd"/></svg>