<?xml version="1.0" encoding="UTF-8"?>
<svg width="48px" height="44px" viewBox="0 0 48 44" version="1.1" xmlns="http://www.w3.org/2000/svg" xmlns:xlink="http://www.w3.org/1999/xlink">
    <!-- Generator: Sketch 48.2 (47327) - http://www.bohemiancoding.com/sketch -->
    <title>mdpi/Fill 153</title>
    <desc>Created with Sketch.</desc>
    <defs></defs>
    <g id="Page-1" stroke="none" stroke-width="1" fill="none" fill-rule="evenodd">
        <path d="M24.914,12.6736168 C25.08,11.6766168 25.412,10.0156168 26.243,8.35461683 C27.129,6.52761683 28.568,4.53461683 30.506,3.20561683 C32.166,2.09861683 34.879,0.825616831 37.038,0.382616831 C38.755,-0.00538316862 40.36,-0.0603831686 41.8,0.0506168314 C44.679,0.327616831 46.229,1.10261683 47.004,2.15461683 C47.281,2.54161683 47.447,3.03961683 47.447,3.37261683 C47.447,3.87061683 47.225,4.59061683 46.506,5.25461683 C45.786,5.91861683 44.236,6.69361683 42.077,7.41361683 C39.862,8.13361683 36.817,8.90861683 33.827,9.62861683 C31.281,10.1816168 29.841,10.6806168 28.679,11.1226168 C26.685,11.7876168 26.077,13.7806168 27.35,14.3896168 C29.122,15.2756168 30.284,16.1606168 31.225,16.9366168 C32.665,18.0986168 34.326,19.4826168 36.374,21.9746168 C38.257,24.2446168 41.301,28.6176168 42.409,32.8806168 C43.627,37.5316168 42.851,41.9606168 40.249,43.1786168 C37.647,44.3966168 34.215,42.6246168 31.779,40.1336168 C29.454,37.7526168 27.848,34.9296168 26.353,30.6106168 C25.025,26.9016168 24.526,21.4756168 24.526,18.7076168 L24.526,16.7146168 C24.637,15.9946168 22.644,15.3856168 20.485,16.7146168 C18.049,18.2646168 15.668,21.1436168 14.229,22.8046168 C13.62,23.5246168 12.789,24.5766168 11.903,25.6836168 C10.741,27.1226168 9.467,28.6736168 8.305,29.5036168 C6.533,30.7766168 3.71,31.3306168 1.717,29.8916168 C0.609,29.1166168 0.056,27.6216168 0,26.1266168 C0,25.0746168 0.222,24.0776168 0.776,23.1366168 C1.44,21.9746168 2.547,20.7006168 4.263,19.3166168 C6.035,17.8216168 8.914,16.1606168 11.793,15.0536168 C16.166,13.3376168 20.872,12.7836168 24.028,13.3376168 C24.693,13.4486168 24.859,13.2826168 24.914,12.6736168 Z" id="Fill-153" fill="#FFFFFF"></path>
    </g>
</svg>